<svg width="250" height="108" viewBox="0 0 250 108" fill="none" xmlns="http://www.w3.org/2000/svg">
<path d="M192.587 15.565C153.015 -5.75083 76.9225 -2.1446 37.8639 16.5078C20.0756 25.0028 -12.7254 49.6171 7.23415 72.8561C10.7545 76.9551 15.0337 80.285 19.461 83.1665C68.1855 114.877 136.143 111.647 188.436 92.6734C196.235 89.8437 203.909 86.4844 210.969 81.9186C216.25 78.5039 221.355 74.2714 225.467 69.3321C237.505 54.8724 234.361 40.3206 221.409 28.0619C206.393 13.8489 185.858 9.44437 166.483 7.03219C149.54 4.92295 132.618 4.51793 115.595 5.37877C83.6703 6.99299 46.8787 9.56151 20.1029 28.9933C8.40797 37.4808 -4.15674 55.6173 5.86793 70.2961C16.731 86.2023 42.3448 91.3527 59.5728 94.7092C106.049 103.764 179.586 99.2744 221.92 75.5123C226.485 72.9498 231.11 70.5618 235.194 67.1922C238.421 64.5297 241.51 61.4937 244.19 58.2081C263.184 34.9234 220.801 20.283 205.853 17.7688C158.831 9.85947 89.2353 -1.5545 45.93 19.4858" stroke="#6101FF" stroke-width="2" stroke-miterlimit="1.5" stroke-linecap="round" stroke-linejoin="round"/>
</svg>
